<svg width="1335" height="308" viewBox="0 0 1335 308" fill="none" xmlns="http://www.w3.org/2000/svg">
<path d="M57.1299 200.021V112.117H0.961914V0.0205078H239.79V3.62105C249.599 1.13027 259.577 0.256516 268.912 0.256516H337.824C350.226 0.256516 363.688 1.84585 376.372 6.71334L375.565 0.256516H502.646L519.924 34.6168L537.596 0.256516H656.048V59.7285H729.4L722.029 0.0205078H876.538C879.316 0.0205078 882.14 0.0917854 884.991 0.256516H1014.24L1028.98 20.6614L1043.43 0.256516H1256.76C1267.61 0.256516 1278.03 0.858994 1287.4 2.4916C1291.28 3.15529 1296.53 4.20305 1301.59 6.0546C1303.91 6.90216 1308.78 8.82343 1313.79 12.6129C1318.1 15.8683 1330.27 26.543 1330.27 45.4485V50.2184L1321.97 84.5071C1332.45 99.5267 1334.75 117.028 1334.75 131.117V139.613C1334.75 158.434 1329.74 177.798 1316.21 193.859C1308.6 202.997 1299.4 208.984 1289.8 212.815C1296.59 221.436 1300.22 227.362 1302.96 238.021C1305.97 249.746 1302.96 269.021 1302.96 269.021C1298.88 280.621 1295.87 286.647 1286.96 295.021C1275.24 303.606 1268.18 305.948 1254.96 307.021C1241.74 307.072 1236.08 304.182 1227.93 300.022C1227.29 299.696 1226.64 299.362 1225.96 299.021C1216.06 304.734 1209.25 306.666 1195.96 307.021C1181.74 306.949 1175.69 303.689 1166.96 298.021C1157.64 304.709 1151.28 305.97 1138.96 306.021H891.962C881.625 306.175 875.583 305.537 862.962 299.021C853.464 304.892 845.71 306.95 833.962 307.021C823.542 307.083 818.663 305.441 807.962 301.021V306.021H486.962C472.913 306.797 466.222 303.66 454.962 296.021C446.291 302.369 440.251 303.987 428.962 306.021H232.361L230.962 302.021C223.367 305.818 216.394 306.273 206.561 306.916L206.522 306.918C206.01 306.952 205.49 306.986 204.962 307.021C191.724 305.971 186.246 303.631 176.962 299.021C164.641 305.551 160.757 305.874 147.282 306.994L146.962 307.021C132.617 305.312 125.236 303.28 116.962 296.021C105.277 304.335 97.3885 305.298 82.9619 306.021H40.9619V200.021H57.1299Z" fill="#1C1827"/>
<path d="M97.1299 179.025V72.1165H40.9619V40.0205H199.79V72.1165H142.914V179.025H97.1299Z" fill="#E0E0DE"/>
<path d="M268.912 179.025C252.235 179.025 240.041 175.327 232.332 167.933C224.78 160.381 221.004 148.423 221.004 132.061V86.9845C221.004 70.9365 224.78 59.1365 232.332 51.5845C239.884 44.0325 252.077 40.2565 268.912 40.2565H337.824C354.344 40.2565 366.38 44.0325 373.932 51.5845C381.641 59.1365 385.496 70.9365 385.496 86.9845V132.061C385.496 148.423 381.641 160.381 373.932 167.933C366.223 175.327 354.187 179.025 337.824 179.025H268.912ZM285.196 146.929H321.776C334.048 146.929 340.184 141.343 340.184 130.173V88.8725C340.184 77.8592 334.048 72.3525 321.776 72.3525H285.196C278.903 72.3525 274.183 73.6112 271.036 76.1285C267.889 78.6459 266.316 82.8938 266.316 88.8725V130.173C266.316 135.994 267.889 140.242 271.036 142.917C274.183 145.591 278.903 146.929 285.196 146.929Z" fill="#E0E0DE"/>
<path d="M423.236 179.025V59.1365L420.876 40.2565H477.988L519.524 122.857L562.004 40.2565H616.048V179.025H570.972V99.4925H568.376L558.464 124.981L541.236 164.865H498.284L480.348 124.981L470.672 99.4925H468.312V179.025H423.236Z" fill="#E0E0DE"/>
<path d="M653.88 136.545V99.7285H729.4V136.545H653.88Z" fill="#E0E0DE"/>
<path d="M920.434 181.385C914.141 181.385 907.14 180.441 899.431 178.553C891.721 176.507 884.09 171.63 876.538 163.921L866.627 154.009C861.906 149.289 857.344 145.434 852.939 142.445C848.691 139.455 843.813 137.253 838.306 135.837C832.8 134.263 825.877 133.477 817.538 133.477H815.65V179.025H769.63V59.1365L767.27 40.0205H876.538C886.608 40.0205 894.71 41.2792 900.846 43.7965C907.14 46.1565 911.938 49.3818 915.242 53.4725C918.704 57.4058 921.064 61.8898 922.322 66.9245C923.581 71.9592 924.21 77.0725 924.21 82.2645V86.7485C924.21 96.1885 921.772 104.685 916.895 112.237C912.175 119.631 904.623 124.902 894.239 128.049C898.172 130.409 901.869 132.847 905.33 135.365C908.949 137.725 913.04 140.242 917.602 142.917C922.794 145.906 927.593 148.109 931.999 149.525C936.561 150.783 940.337 151.57 943.327 151.885C946.316 152.199 948.046 152.357 948.518 152.357L941.439 179.025C939.551 179.497 936.64 179.969 932.706 180.441C928.93 181.07 924.84 181.385 920.434 181.385ZM843.026 102.089C846.96 102.089 850.736 102.01 854.354 101.853C858.13 101.695 861.513 101.459 864.502 101.145C869.852 100.515 873.47 98.8632 875.358 96.1885C877.404 93.3565 878.426 89.9738 878.426 86.0405V83.4445C878.426 79.9832 877.404 77.3085 875.358 75.4205C873.47 73.5325 869.931 72.5885 864.739 72.5885H815.65V101.145C819.584 101.302 823.91 101.538 828.63 101.853C833.35 102.01 838.149 102.089 843.026 102.089Z" fill="#E0E0DE"/>
<path d="M1005.83 179.025V121.677L936.914 40.2565H993.79L1017.15 72.5885L1028.01 89.8165H1030.37L1041.23 72.5885L1064.12 40.2565L1120.99 40.2565L1111.79 54.4165L1051.37 122.621V179.025H1005.83Z" fill="#E0E0DE"/>
<path d="M1166.61 179.025C1155.91 179.025 1148.04 178.553 1143.01 177.609C1137.97 176.665 1135.45 175.563 1135.45 174.305L1149.61 143.861C1153.23 144.49 1160.71 145.119 1172.03 145.749C1183.36 146.221 1198.07 146.457 1216.17 146.457H1234.81C1240.32 146.457 1244.01 145.67 1245.9 144.097C1247.79 142.523 1248.73 140.242 1248.73 137.253V134.893C1248.73 131.117 1247.79 128.521 1245.9 127.105C1244.01 125.689 1240.32 124.981 1234.81 124.981H1180.77C1164.88 124.981 1153.31 122.07 1146.07 116.249C1138.84 110.27 1135.22 100.594 1135.22 87.2205V78.7245C1135.22 71.8019 1136.48 65.4299 1138.99 59.6085C1141.67 53.7872 1146.15 49.1459 1152.45 45.6845C1158.74 42.0659 1167.39 40.2565 1178.41 40.2565H1256.76C1266.36 40.2565 1274.3 40.8072 1280.59 41.9085C1287.05 43.0099 1290.27 44.1898 1290.27 45.4485L1283.19 74.7125C1278.79 74.2405 1270.45 73.7685 1258.17 73.2965C1246.06 72.6672 1230.64 72.3525 1211.92 72.3525L1194.93 72.1165C1190.05 72.1165 1186.59 72.8245 1184.54 74.2405C1182.5 75.4992 1181.4 77.9379 1181.24 81.5565V83.2085C1181.24 86.8272 1182.34 89.3445 1184.54 90.7605C1186.75 92.1765 1190.29 92.8845 1195.16 92.8845H1247.08C1257.15 92.8845 1265.73 93.9072 1272.81 95.9525C1279.89 97.9978 1285.31 101.774 1289.09 107.281C1292.87 112.63 1294.75 120.575 1294.75 131.117V139.613C1294.75 151.413 1291.69 160.931 1285.55 168.169C1279.57 175.406 1269.11 179.025 1254.16 179.025H1166.61Z" fill="#E0E0DE"/>
<path d="M213.436 235.964C215.16 237.233 216.135 239.013 216.362 241.305H228.152C228.095 237.839 227.167 234.789 225.368 232.157C223.569 229.524 221.05 227.469 217.811 225.992C214.591 224.515 210.823 223.776 206.504 223.776C202.262 223.776 198.474 224.515 195.141 225.992C191.808 227.469 189.184 229.524 187.271 232.157C185.378 234.789 184.44 237.867 184.459 241.39C184.44 245.689 185.851 249.108 188.692 251.646C191.533 254.183 195.406 256.049 200.311 257.242L206.646 258.833C208.768 259.344 210.558 259.913 212.016 260.538C213.493 261.163 214.61 261.92 215.368 262.81C216.144 263.7 216.533 264.799 216.533 266.106C216.533 267.507 216.107 268.748 215.254 269.827C214.402 270.907 213.199 271.75 211.646 272.356C210.112 272.962 208.304 273.265 206.22 273.265C204.099 273.265 202.196 272.943 200.51 272.299C198.843 271.636 197.508 270.661 196.504 269.373C195.519 268.066 194.961 266.437 194.828 264.486H182.925C183.019 268.672 184.033 272.185 185.964 275.026C187.915 277.848 190.624 279.979 194.089 281.418C197.574 282.858 201.665 283.577 206.362 283.577C211.097 283.577 215.141 282.867 218.493 281.447C221.864 280.007 224.44 277.99 226.22 275.396C228.019 272.782 228.929 269.695 228.948 266.134C228.929 263.71 228.484 261.56 227.612 259.685C226.76 257.81 225.558 256.182 224.004 254.799C222.451 253.416 220.614 252.252 218.493 251.305C216.372 250.358 214.042 249.6 211.504 249.032L206.277 247.782C205.008 247.498 203.815 247.157 202.698 246.759C201.58 246.342 200.595 245.859 199.743 245.31C198.891 244.742 198.218 244.07 197.726 243.293C197.253 242.517 197.035 241.608 197.073 240.566C197.073 239.316 197.433 238.199 198.152 237.214C198.891 236.229 199.951 235.462 201.334 234.913C202.716 234.344 204.412 234.06 206.419 234.06C209.374 234.06 211.713 234.695 213.436 235.964Z" fill="#E0E0DE"/>
<path d="M207.612 206.021L201.589 218.947H210.141L218.806 206.021H207.612Z" fill="#E0E0DE"/>
<path fill-rule="evenodd" clip-rule="evenodd" d="M175.688 253.663C175.688 260.007 174.485 265.405 172.08 269.856C169.693 274.307 166.436 277.706 162.307 280.055C158.197 282.384 153.576 283.549 148.443 283.549C143.273 283.549 138.633 282.375 134.523 280.026C130.413 277.678 127.165 274.278 124.778 269.827C122.392 265.377 121.199 259.988 121.199 253.663C121.199 247.318 122.392 241.92 124.778 237.469C127.165 233.019 130.413 229.628 134.523 227.299C138.633 224.95 143.273 223.776 148.443 223.776C153.576 223.776 158.197 224.95 162.307 227.299C166.436 229.628 169.693 233.019 172.08 237.469C174.485 241.92 175.688 247.318 175.688 253.663ZM163.216 253.663C163.216 249.553 162.6 246.087 161.37 243.265C160.157 240.443 158.443 238.303 156.227 236.844C154.011 235.386 151.417 234.657 148.443 234.657C145.47 234.657 142.875 235.386 140.659 236.844C138.443 238.303 136.72 240.443 135.489 243.265C134.276 246.087 133.671 249.553 133.671 253.663C133.671 257.772 134.276 261.238 135.489 264.06C136.72 266.882 138.443 269.022 140.659 270.481C142.875 271.939 145.47 272.668 148.443 272.668C151.417 272.668 154.011 271.939 156.227 270.481C158.443 269.022 160.157 266.882 161.37 264.06C162.6 261.238 163.216 257.772 163.216 253.663Z" fill="#E0E0DE"/>
<path fill-rule="evenodd" clip-rule="evenodd" d="M84.6437 282.753H64.0186V224.572H84.8141C90.6664 224.572 95.7042 225.736 99.9276 228.066C104.151 230.377 107.399 233.7 109.672 238.038C111.964 242.375 113.11 247.564 113.11 253.606C113.11 259.666 111.964 264.875 109.672 269.231C107.399 273.587 104.132 276.93 99.8707 279.259C95.6283 281.589 90.5526 282.753 84.6437 282.753ZM76.3197 272.214H84.1322C87.7684 272.214 90.8273 271.57 93.3082 270.282C95.8082 268.975 97.6832 266.958 98.9332 264.231C100.202 261.484 100.837 257.943 100.837 253.606C100.837 249.307 100.202 245.793 98.9332 243.066C97.6832 240.339 95.8178 238.331 93.3368 237.043C90.8556 235.755 87.797 235.111 84.1605 235.111H76.3197V272.214Z" fill="#E0E0DE"/>
<path d="M250.318 282.753L233.671 224.572H247.108L256.739 264.998H257.222L267.847 224.572H279.352L289.949 265.083H290.46L300.091 224.572H313.528L296.881 282.753H284.892L273.813 244.714H273.358L262.307 282.753H250.318Z" fill="#E0E0DE"/>
<path d="M332.413 282.753V224.572H320.112V282.753H332.413Z" fill="#E0E0DE"/>
<path fill-rule="evenodd" clip-rule="evenodd" d="M352.563 282.753H339.381L359.466 224.572H375.318L395.375 282.753H382.193L377.886 269.486H356.879L352.563 282.753ZM367.62 237.867L374.768 259.884H360.002L367.165 237.867H367.62Z" fill="#E0E0DE"/>
<path fill-rule="evenodd" clip-rule="evenodd" d="M402.378 282.753H423.003C428.912 282.753 433.988 281.589 438.23 279.259C442.492 276.93 445.759 273.587 448.031 269.231C450.323 264.875 451.469 259.666 451.469 253.606C451.469 247.564 450.323 242.375 448.031 238.038C445.759 233.7 442.511 230.377 438.287 228.066C434.064 225.736 429.026 224.572 423.174 224.572H402.378V282.753ZM422.492 272.214H414.679V235.111H422.52C426.156 235.111 429.215 235.755 431.696 237.043C434.177 238.331 436.043 240.339 437.293 243.066C438.562 245.793 439.196 249.307 439.196 253.606C439.196 257.943 438.562 261.484 437.293 264.231C436.043 266.958 434.168 268.975 431.668 270.282C429.187 271.57 426.128 272.214 422.492 272.214Z" fill="#E0E0DE"/>
<path d="M511.916 244.941H499.473C499.246 243.331 498.782 241.901 498.081 240.651C497.38 239.382 496.481 238.303 495.382 237.413C494.284 236.522 493.015 235.841 491.575 235.367C490.155 234.894 488.612 234.657 486.945 234.657C483.933 234.657 481.31 235.405 479.075 236.901C476.841 238.378 475.108 240.538 473.877 243.378C472.645 246.2 472.03 249.628 472.03 253.663C472.03 257.81 472.645 261.295 473.877 264.117C475.127 266.939 476.869 269.07 479.104 270.509C481.339 271.949 483.924 272.668 486.86 272.668C488.507 272.668 490.032 272.45 491.433 272.015C492.854 271.579 494.113 270.945 495.212 270.111C496.31 269.259 497.219 268.227 497.939 267.015C498.678 265.803 499.189 264.42 499.473 262.867L511.916 262.924C511.594 265.594 510.789 268.17 509.502 270.651C508.233 273.113 506.519 275.32 504.36 277.271C502.219 279.202 499.663 280.736 496.689 281.873C493.735 282.99 490.392 283.549 486.661 283.549C481.471 283.549 476.831 282.375 472.74 280.026C468.668 277.678 465.448 274.278 463.081 269.827C460.733 265.377 459.558 259.988 459.558 253.663C459.558 247.318 460.752 241.92 463.138 237.469C465.524 233.019 468.763 229.628 472.854 227.299C476.945 224.95 481.547 223.776 486.661 223.776C490.032 223.776 493.157 224.25 496.036 225.197C498.933 226.144 501.5 227.526 503.735 229.344C505.969 231.144 507.788 233.35 509.189 235.964C510.61 238.577 511.519 241.57 511.916 244.941Z" fill="#E0E0DE"/>
<path d="M520.112 275.452V282.753H564.658V272.611H535.539L564.601 231.873V224.572H520.056V234.714H549.146L520.112 275.452Z" fill="#E0E0DE"/>
<path d="M574.097 282.753V224.572H613.301V234.714H586.398V248.577H611.284V258.719H586.398V272.611H613.415V282.753H574.097Z" fill="#E0E0DE"/>
<path d="M671.746 282.753V224.572H659.502V261.163H658.99L633.877 224.572H623.081V282.753H635.382V246.134H635.809L661.121 282.753H671.746Z" fill="#E0E0DE"/>
<path d="M694.21 224.572V282.753H681.909V224.572H694.21Z" fill="#E0E0DE"/>
<path d="M704.331 224.572V282.753H743.649V272.611H716.632V258.719H741.519V248.577H716.632V234.714H743.536V224.572H704.331Z" fill="#E0E0DE"/>
<path d="M784.132 224.572V282.753H771.831V224.572H784.132Z" fill="#E0E0DE"/>
<path d="M841.405 235.964C843.128 237.233 844.104 239.013 844.331 241.305H856.121C856.064 237.839 855.136 234.789 853.337 232.157C851.538 229.524 849.019 227.469 845.78 225.992C842.56 224.515 838.791 223.776 834.473 223.776C830.231 223.776 826.443 224.515 823.11 225.992C819.776 227.469 817.153 229.524 815.24 232.157C813.346 234.789 812.409 237.867 812.428 241.39C812.409 245.689 813.82 249.108 816.661 251.646C819.502 254.183 823.375 256.049 828.28 257.242L834.615 258.833C836.737 259.344 838.526 259.913 839.985 260.538C841.462 261.163 842.579 261.92 843.337 262.81C844.113 263.7 844.502 264.799 844.502 266.106C844.502 267.507 844.075 268.748 843.223 269.827C842.371 270.907 841.168 271.75 839.615 272.356C838.081 272.962 836.272 273.265 834.189 273.265C832.068 273.265 830.165 272.943 828.479 272.299C826.812 271.636 825.477 270.661 824.473 269.373C823.488 268.066 822.93 266.437 822.797 264.486H810.894C810.988 268.672 812.002 272.185 813.934 275.026C815.884 277.848 818.592 279.979 822.059 281.418C825.543 282.858 829.634 283.577 834.331 283.577C839.066 283.577 843.11 282.867 846.462 281.447C849.833 280.007 852.409 277.99 854.189 275.396C855.988 272.782 856.897 269.695 856.916 266.134C856.897 263.71 856.452 261.56 855.581 259.685C854.729 257.81 853.526 256.182 851.973 254.799C850.42 253.416 848.583 252.252 846.462 251.305C844.341 250.358 842.011 249.6 839.473 249.032L834.246 247.782C832.977 247.498 831.784 247.157 830.666 246.759C829.549 246.342 828.564 245.859 827.712 245.31C826.86 244.742 826.187 244.07 825.695 243.293C825.221 242.517 825.003 241.608 825.041 240.566C825.041 239.316 825.401 238.199 826.121 237.214C826.86 236.229 827.92 235.462 829.303 234.913C830.685 234.344 832.38 234.06 834.388 234.06C837.342 234.06 839.682 234.695 841.405 235.964Z" fill="#E0E0DE"/>
<path fill-rule="evenodd" clip-rule="evenodd" d="M918.656 253.663C918.656 260.007 917.454 265.405 915.049 269.856C912.662 274.307 909.405 277.706 905.276 280.055C901.166 282.384 896.545 283.549 891.412 283.549C886.242 283.549 881.602 282.375 877.492 280.026C873.382 277.678 870.134 274.278 867.747 269.827C865.361 265.377 864.168 259.988 864.168 253.663C864.168 247.318 865.361 241.92 867.747 237.469C870.134 233.019 873.382 229.628 877.492 227.299C881.602 224.95 886.242 223.776 891.412 223.776C896.545 223.776 901.166 224.95 905.276 227.299C909.405 229.628 912.662 233.019 915.049 237.469C917.454 241.92 918.656 247.318 918.656 253.663ZM906.185 253.663C906.185 249.553 905.569 246.087 904.338 243.265C903.126 240.443 901.412 238.303 899.196 236.844C896.98 235.386 894.386 234.657 891.412 234.657C888.439 234.657 885.844 235.386 883.628 236.844C881.412 238.303 879.689 240.443 878.457 243.265C877.245 246.087 876.639 249.553 876.639 253.663C876.639 257.772 877.245 261.238 878.457 264.06C879.689 266.882 881.412 269.022 883.628 270.481C885.844 271.939 888.439 272.668 891.412 272.668C894.386 272.668 896.98 271.939 899.196 270.481C901.412 269.022 903.126 266.882 904.338 264.06C905.569 261.238 906.185 257.772 906.185 253.663Z" fill="#E0E0DE"/>
<path d="M927.769 224.572V282.753H965.013V272.611H940.07V224.572H927.769Z" fill="#E0E0DE"/>
<path d="M985.46 224.572V282.753H973.159V224.572H985.46Z" fill="#E0E0DE"/>
<path fill-rule="evenodd" clip-rule="evenodd" d="M995.581 282.753H1016.21C1022.12 282.753 1027.19 281.589 1031.43 279.259C1035.69 276.93 1038.96 273.587 1041.23 269.231C1043.53 264.875 1044.67 259.666 1044.67 253.606C1044.67 247.564 1043.53 242.375 1041.23 238.038C1038.96 233.7 1035.71 230.377 1031.49 228.066C1027.27 225.736 1022.23 224.572 1016.38 224.572H995.581V282.753ZM1015.69 272.214H1007.88V235.111H1015.72C1019.36 235.111 1022.42 235.755 1024.9 237.043C1027.38 238.331 1029.25 240.339 1030.5 243.066C1031.76 245.793 1032.4 249.307 1032.4 253.606C1032.4 257.943 1031.76 261.484 1030.5 264.231C1029.25 266.958 1027.37 268.975 1024.87 270.282C1022.39 271.57 1019.33 272.214 1015.69 272.214Z" fill="#E0E0DE"/>
<path d="M1102.45 224.572V282.753H1091.82L1066.51 246.134H1066.09V282.753H1053.78V224.572H1064.58L1089.69 261.163H1090.2V224.572H1102.45Z" fill="#E0E0DE"/>
<path fill-rule="evenodd" clip-rule="evenodd" d="M1162.47 269.856C1164.88 265.405 1166.08 260.007 1166.08 253.663C1166.08 247.318 1164.88 241.92 1162.47 237.469C1160.08 233.019 1156.83 229.628 1152.7 227.299C1148.59 224.95 1143.97 223.776 1138.83 223.776C1133.66 223.776 1129.02 224.95 1124.91 227.299C1120.8 229.628 1117.56 233.019 1115.17 237.469C1112.78 241.92 1111.59 247.318 1111.59 253.663C1111.59 259.988 1112.78 265.377 1115.17 269.827C1117.56 274.278 1120.8 277.678 1124.91 280.026C1129.02 282.375 1133.66 283.549 1138.83 283.549C1143.97 283.549 1148.59 282.384 1152.7 280.055C1156.83 277.706 1160.08 274.307 1162.47 269.856ZM1151.76 243.265C1152.99 246.087 1153.61 249.553 1153.61 253.663C1153.61 257.772 1152.99 261.238 1151.76 264.06C1150.55 266.882 1148.83 269.022 1146.62 270.481C1144.4 271.939 1141.81 272.668 1138.83 272.668C1135.86 272.668 1133.27 271.939 1131.05 270.481C1128.83 269.022 1127.11 266.882 1125.88 264.06C1124.67 261.238 1124.06 257.772 1124.06 253.663C1124.06 249.553 1124.67 246.087 1125.88 243.265C1127.11 240.443 1128.83 238.303 1131.05 236.844C1133.27 235.386 1135.86 234.657 1138.83 234.657C1141.81 234.657 1144.4 235.386 1146.62 236.844C1148.83 238.303 1150.55 240.443 1151.76 243.265Z" fill="#E0E0DE"/>
<path d="M1206.75 241.305C1206.53 239.013 1205.55 237.233 1203.83 235.964C1202.1 234.695 1199.76 234.06 1196.81 234.06C1194.8 234.06 1193.11 234.344 1191.72 234.913C1190.34 235.462 1189.28 236.229 1188.54 237.214C1187.82 238.199 1187.46 239.316 1187.46 240.566C1187.43 241.608 1187.64 242.517 1188.12 243.293C1188.61 244.07 1189.28 244.742 1190.13 245.31C1190.99 245.859 1191.97 246.342 1193.09 246.759C1194.21 247.157 1195.4 247.498 1196.67 247.782L1201.9 249.032C1204.43 249.6 1206.76 250.358 1208.88 251.305C1211 252.252 1212.84 253.416 1214.4 254.799C1215.95 256.182 1217.15 257.81 1218 259.685C1218.87 261.56 1219.32 263.71 1219.34 266.134C1219.32 269.695 1218.41 272.782 1216.61 275.396C1214.83 277.99 1212.25 280.007 1208.88 281.447C1205.53 282.867 1201.49 283.577 1196.75 283.577C1192.06 283.577 1187.97 282.858 1184.48 281.418C1181.01 279.979 1178.31 277.848 1176.36 275.026C1174.42 272.185 1173.41 268.672 1173.32 264.486H1185.22C1185.35 266.437 1185.91 268.066 1186.9 269.373C1187.9 270.661 1189.23 271.636 1190.9 272.299C1192.59 272.943 1194.49 273.265 1196.61 273.265C1198.69 273.265 1200.5 272.962 1202.04 272.356C1203.59 271.75 1204.79 270.907 1205.65 269.827C1206.5 268.748 1206.92 267.507 1206.92 266.106C1206.92 264.799 1206.54 263.7 1205.76 262.81C1205 261.92 1203.88 261.163 1202.41 260.538C1200.95 259.913 1199.16 259.344 1197.04 258.833L1190.7 257.242C1185.8 256.049 1181.92 254.183 1179.08 251.646C1176.24 249.108 1174.83 245.689 1174.85 241.39C1174.83 237.867 1175.77 234.789 1177.66 232.157C1179.57 229.524 1182.2 227.469 1185.53 225.992C1188.86 224.515 1192.65 223.776 1196.9 223.776C1201.21 223.776 1204.98 224.515 1208.2 225.992C1211.44 227.469 1213.96 229.524 1215.76 232.157C1217.56 234.789 1218.49 237.839 1218.54 241.305H1206.75Z" fill="#E0E0DE"/>
<path d="M1191.98 218.947L1198 206.021H1209.2L1200.53 218.947H1191.98Z" fill="#E0E0DE"/>
<path d="M1266.5 244.941H1278.95C1278.55 241.57 1277.64 238.577 1276.22 235.964C1274.82 233.35 1273 231.144 1270.77 229.344C1268.53 227.526 1265.96 226.144 1263.07 225.197C1260.19 224.25 1257.06 223.776 1253.69 223.776C1248.58 223.776 1243.98 224.95 1239.89 227.299C1235.79 229.628 1232.56 233.019 1230.17 237.469C1227.78 241.92 1226.59 247.318 1226.59 253.663C1226.59 259.988 1227.76 265.377 1230.11 269.827C1232.48 274.278 1235.7 277.678 1239.77 280.026C1243.86 282.375 1248.5 283.549 1253.69 283.549C1257.42 283.549 1260.77 282.99 1263.72 281.873C1266.69 280.736 1269.25 279.202 1271.39 277.271C1273.55 275.32 1275.26 273.113 1276.53 270.651C1277.82 268.17 1278.63 265.594 1278.95 262.924L1266.5 262.867C1266.22 264.42 1265.71 265.803 1264.97 267.015C1264.25 268.227 1263.34 269.259 1262.24 270.111C1261.14 270.945 1259.89 271.579 1258.46 272.015C1257.06 272.45 1255.54 272.668 1253.89 272.668C1250.96 272.668 1248.37 271.949 1246.14 270.509C1243.9 269.07 1242.16 266.939 1240.91 264.117C1239.68 261.295 1239.06 257.81 1239.06 253.663C1239.06 249.628 1239.68 246.2 1240.91 243.378C1242.14 240.538 1243.87 238.378 1246.11 236.901C1248.34 235.405 1250.96 234.657 1253.98 234.657C1255.64 234.657 1257.19 234.894 1258.61 235.367C1260.05 235.841 1261.32 236.522 1262.41 237.413C1263.51 238.303 1264.41 239.382 1265.11 240.651C1265.81 241.901 1266.28 243.331 1266.5 244.941Z" fill="#E0E0DE"/>
<path d="M1255.37 206.021L1249.35 218.947H1257.9L1266.56 206.021H1255.37Z" fill="#E0E0DE"/>
</svg>