<svg xmlns="http://www.w3.org/2000/svg" xmlns:xlink="http://www.w3.org/1999/xlink" width="200" zoomAndPan="magnify" viewBox="0 0 150 149.999998" height="200" preserveAspectRatio="xMidYMid meet" version="1.0"><defs><clipPath id="0c936b9734"><path d="M 1 6 L 149.351562 6 L 149.351562 143.90625 L 1 143.90625 Z M 1 6 " clip-rule="nonzero"/></clipPath></defs><g clip-path="url(#0c936b9734)"><path fill="#4871b0" d="M 40.335938 111.273438 C 40.769531 112.03125 41.164062 112.621094 41.464844 113.253906 C 41.714844 113.699219 41.886719 114.171875 41.976562 114.65625 C 42.1875 115.980469 41.859375 116.425781 40.519531 116.636719 C 39.609375 116.714844 38.78125 117.148438 38.203125 117.832031 C 37.636719 118.550781 36.703125 118.894531 35.808594 118.710938 C 34.902344 118.527344 34.179688 117.855469 33.941406 116.976562 C 33.246094 114.773438 31.757812 112.910156 29.773438 111.757812 C 29.167969 111.402344 28.589844 110.96875 28.628906 110.15625 C 28.679688 109.355469 29.257812 108.9375 29.957031 108.59375 C 30.652344 108.242188 31.691406 107.507812 32.519531 106.96875 C 31.730469 105.304688 31.035156 105.027344 29.441406 105.671875 C 28.929688 105.90625 28.402344 106.234375 28.074219 105.539062 C 27.796875 105.839844 27.589844 106.261719 27.257812 106.417969 C 26.285156 106.851562 25.667969 106.417969 25.429688 105.445312 C 25.3125 104.84375 25.128906 104.527344 24.417969 104.542969 C 24.179688 104.542969 23.929688 104.054688 23.65625 103.847656 C 23.378906 103.546875 23.050781 103.308594 22.683594 103.136719 C 21.378906 102.71875 20.078125 102.363281 18.761719 102.050781 C 18.421875 101.957031 18.066406 101.957031 17.722656 102.050781 C 16.722656 102.296875 16.472656 102.050781 16.355469 101.105469 C 16.289062 100.566406 16.078125 100.070312 15.75 99.648438 C 15.328125 99.203125 15.144531 98.585938 15.238281 97.984375 C 15.382812 97.378906 15.238281 97.078125 14.566406 96.945312 L 12.59375 96.472656 C 12.554688 97.15625 12.460938 97.824219 12.34375 98.496094 C 12.328125 98.980469 12.082031 99.453125 11.683594 99.742188 C 11.277344 100.027344 10.765625 100.132812 10.277344 99.988281 C 9.566406 99.988281 8.660156 99.988281 8.265625 99.253906 C 7.871094 98.519531 8.566406 97.890625 9.003906 97.339844 L 9.015625 97.339844 C 10.371094 95.738281 11.171875 93.757812 11.332031 91.671875 C 11.371094 91.292969 11.476562 90.925781 11.632812 90.558594 C 11.832031 89.875 11.777344 89.113281 11.460938 88.457031 C 11.210938 87.804688 11.09375 87.09375 11.121094 86.386719 C 11.121094 85.390625 10.976562 85.207031 10.066406 84.800781 C 9.277344 84.429688 8.542969 83.972656 7.871094 83.410156 C 7.699219 83.183594 7.621094 82.898438 7.648438 82.609375 C 7.6875 82.332031 7.832031 82.082031 8.054688 81.898438 C 8.421875 81.492188 8.609375 80.941406 8.554688 80.402344 C 8.515625 79.851562 8.253906 79.339844 7.832031 78.988281 C 7.59375 78.671875 7.421875 78.332031 7.320312 77.949219 C 7.199219 77.675781 7.171875 77.347656 7.042969 77.097656 C 6.410156 75.800781 6.34375 75.761719 7.464844 74.789062 C 8.566406 73.820312 8.527344 72.296875 9.121094 71.0625 C 9.160156 70.839844 9.09375 70.617188 8.9375 70.460938 C 8.226562 69.476562 8.027344 68.203125 8.410156 67.050781 C 8.554688 66.617188 8.34375 66.144531 7.921875 65.960938 C 6.699219 64.910156 6.160156 63.273438 6.527344 61.710938 C 7.515625 61.003906 7.964844 59.78125 7.6875 58.613281 C 7.714844 58.222656 7.570312 57.839844 7.292969 57.578125 C 6.738281 57.039062 6.28125 56.4375 5.714844 55.914062 C 4.542969 54.785156 3.398438 53.605469 2.058594 52.554688 C 1.136719 51.847656 0.964844 51.660156 1.453125 50.597656 C 1.597656 50.3125 1.648438 49.984375 1.597656 49.667969 C 1.359375 48.921875 1.769531 48.105469 2.515625 47.84375 C 4.148438 47.320312 5.226562 45.796875 5.1875 44.105469 C 5.148438 43.582031 5.28125 43.070312 5.554688 42.625 C 6.09375 41.796875 6.238281 40.773438 5.976562 39.828125 C 5.792969 38.976562 5.699219 38.070312 5.503906 37.21875 C 5.359375 36.71875 5.175781 36.234375 4.949219 35.761719 C 4.859375 35.566406 4.792969 35.355469 4.765625 35.132812 C 4.765625 34.097656 4.582031 33.085938 4.515625 32.035156 C 4.515625 30.632812 4.398438 29.203125 4.332031 27.785156 C 4.332031 26.988281 4.214844 26.148438 4.148438 25.230469 C 4.332031 25.253906 4.515625 25.308594 4.699219 25.386719 C 5.738281 26.09375 7.082031 26.160156 8.199219 25.570312 C 14.09375 23 20.261719 21.097656 26.589844 19.914062 C 28.023438 19.71875 29.429688 19.445312 30.824219 19.078125 C 31.757812 18.8125 32.601562 18.339844 33.308594 17.699219 C 34.269531 16.753906 35.113281 15.730469 35.863281 14.617188 C 36.808594 13.1875 38.359375 12.269531 40.070312 12.125 C 41.832031 11.925781 43.492188 11.230469 44.871094 10.144531 C 46.753906 8.59375 49.148438 7.769531 51.59375 7.832031 C 52.75 7.742188 53.882812 7.453125 54.921875 6.953125 C 57.078125 6.179688 59.367188 5.917969 61.644531 6.167969 C 62.894531 6.167969 63.539062 7.164062 63.8125 8.476562 C 63.8125 8.871094 64.289062 9.199219 64.40625 9.605469 C 64.773438 10.996094 65.878906 12.097656 65.746094 13.699219 C 65.5625 15.757812 65.929688 16.191406 67.800781 16.949219 C 70.851562 18.117188 74.230469 18.117188 77.28125 16.949219 C 78.296875 16.664062 79.257812 16.230469 80.152344 15.664062 C 81.230469 14.929688 82.542969 14.65625 83.808594 14.90625 L 99.105469 17.214844 C 103.5625 17.765625 108.050781 17.816406 112.507812 17.371094 C 115.535156 17.121094 118.53125 16.636719 121.546875 16.253906 C 121.964844 16.253906 122.375 16.214844 122.78125 16.152344 C 123.386719 16.019531 123.964844 15.796875 124.492188 15.480469 C 125.253906 14.863281 126.308594 14.800781 127.136719 15.285156 C 127.949219 15.785156 128.636719 16.425781 129.449219 16.9375 C 130.265625 17.4375 131.777344 18.277344 132.898438 18.945312 C 134.476562 19.746094 135.527344 21.304688 135.683594 23.050781 L 135.683594 23.535156 C 135.371094 24.625 135.371094 25.765625 135.683594 26.84375 C 135.683594 27.722656 136.199219 28.535156 136.355469 29.414062 C 137.027344 32.378906 138.027344 35.265625 139.34375 38.007812 C 140.066406 39.582031 140.945312 41.101562 141.800781 42.625 C 142.355469 43.332031 142.539062 44.261719 142.289062 45.117188 C 142.210938 45.550781 142.277344 45.996094 142.472656 46.386719 C 143.328125 48.722656 143.65625 51.203125 143.472656 53.667969 C 143.378906 55.136719 142.628906 56.503906 141.40625 57.34375 C 141.039062 57.683594 140.566406 57.878906 140.066406 57.894531 C 138.894531 57.761719 137.75 58.3125 137.121094 59.308594 C 135.816406 61.015625 134.804688 62.890625 133.554688 64.714844 C 133.398438 64.9375 133.355469 65.226562 133.449219 65.488281 C 133.542969 65.75 133.765625 65.949219 134.042969 66 C 134.726562 66.316406 135.421875 66.578125 136.144531 66.789062 C 136.960938 67.089844 137.910156 67.167969 138.34375 68.113281 C 138.34375 68.230469 138.632812 68.242188 138.789062 68.308594 L 138.789062 68.324219 C 140.40625 69.109375 141.25 70.917969 140.800781 72.664062 C 140.605469 73.542969 140.617188 74.488281 140.433594 75.367188 C 140.367188 76.050781 140.15625 76.703125 139.800781 77.308594 C 139.355469 77.886719 139.238281 78.671875 139.511719 79.367188 C 140.011719 80.707031 140.617188 82.003906 141.316406 83.265625 C 142 84.207031 142.089844 85.453125 141.539062 86.476562 C 141.367188 86.714844 141.300781 87.015625 141.394531 87.316406 C 141.472656 87.59375 141.683594 87.828125 141.960938 87.933594 C 142.300781 88.195312 142.566406 88.550781 142.722656 88.945312 C 142.984375 89.71875 143.523438 90.375 144.234375 90.769531 C 144.484375 90.925781 144.707031 91.136719 144.878906 91.371094 C 145.417969 92.644531 145.878906 93.917969 146.367188 95.214844 C 146.65625 96.09375 147.339844 96.800781 148.222656 97.128906 C 148.457031 97.195312 148.679688 97.289062 148.890625 97.433594 C 149.46875 97.824219 149.535156 98.375 148.890625 98.769531 C 148.367188 99.097656 147.8125 99.386719 147.246094 99.648438 L 147.734375 100.34375 C 149.15625 102.351562 149.550781 104.921875 148.800781 107.269531 C 148.523438 108.6875 147.222656 109.671875 145.789062 109.578125 C 144.683594 109.421875 143.628906 110.066406 143.261719 111.113281 C 142.75 112.019531 142.050781 112.804688 141.195312 113.421875 C 139.144531 115.417969 137.304688 117.621094 135.710938 119.996094 C 134.527344 121.714844 133.238281 123.355469 132.042969 125.058594 C 130.871094 126.777344 130.09375 128.117188 129.226562 129.691406 C 129.054688 130.109375 129.054688 130.570312 129.226562 131 C 129.988281 132.640625 130.359375 134.4375 130.304688 136.25 C 130.070312 137.613281 130.609375 138.992188 131.726562 139.832031 C 132.898438 140.75 133.003906 142.140625 132.160156 143.753906 L 131.148438 143.242188 C 130.921875 143.082031 130.660156 142.964844 130.382812 142.925781 C 128.804688 142.664062 127.242188 142.269531 125.742188 141.707031 C 124.359375 141.378906 122.964844 141.011719 121.585938 140.605469 C 121.253906 140.460938 120.953125 140.261719 120.675781 140.039062 C 120.425781 139.804688 120.152344 139.632812 119.835938 139.503906 C 118.769531 139.238281 117.902344 138.464844 117.519531 137.441406 C 117.097656 136.8125 116.574219 136.261719 115.953125 135.828125 C 115.691406 135.699219 115.375 135.699219 115.113281 135.828125 C 114.863281 136.011719 114.546875 136.066406 114.246094 136.011719 C 113.929688 135.960938 113.667969 135.777344 113.496094 135.527344 C 112.746094 134.6875 111.574219 134.371094 110.507812 134.726562 C 109.484375 135.027344 108.417969 135.027344 107.390625 134.726562 C 106.996094 134.570312 106.535156 134.621094 106.195312 134.882812 C 105.5625 135.121094 104.894531 135.238281 104.222656 135.25 C 104.222656 136.640625 102.8125 137.140625 101.65625 137.730469 C 101.234375 137.902344 100.777344 137.902344 100.355469 137.730469 C 99.550781 137.21875 98.777344 136.65625 98.039062 136.050781 C 97.460938 135.605469 96.949219 135.355469 96.277344 136.050781 C 95.949219 136.234375 95.578125 136.300781 95.210938 136.25 C 94.660156 136.25 94.105469 136.25 93.566406 136.105469 C 93.144531 136.066406 92.75 136.328125 92.621094 136.722656 C 92.355469 137.089844 91.949219 137.3125 91.515625 137.324219 C 90.34375 137.3125 89.359375 138.152344 89.1875 139.292969 C 89.199219 139.515625 89.199219 139.726562 89.1875 139.933594 C 88.964844 141.445312 88.332031 141.71875 87.175781 140.800781 C 86.699219 140.316406 85.9375 140.222656 85.359375 140.589844 C 84.042969 141.234375 83.214844 140.722656 83.042969 139.253906 L 83.042969 136.929688 C 83.042969 136.128906 83.042969 136.050781 82.292969 136.011719 C 81.519531 135.960938 81.636719 135.554688 81.308594 135.292969 C 80.992188 135.042969 81.308594 135.160156 81.308594 135.160156 C 79.78125 134.371094 79.320312 132.667969 78.203125 131.511719 C 77.425781 132.128906 76.652344 132.667969 75.890625 133.285156 C 75.546875 133.597656 75.269531 133.992188 75.097656 134.414062 C 74.808594 135.5 73.785156 136.195312 72.667969 136.105469 L 71.773438 136.105469 C 70.5625 136.105469 70.441406 136.105469 70.257812 134.804688 C 70.257812 134.203125 70.035156 133.703125 69.273438 133.585938 C 68.984375 133.585938 68.707031 133.167969 68.574219 132.890625 C 68.390625 132.417969 68.246094 131.933594 68.15625 131.433594 C 68.007812 130.398438 67.3125 129.519531 66.324219 129.125 C 64.984375 128.507812 64.207031 127.078125 64.417969 125.625 L 64.417969 124.808594 C 64.472656 124.585938 64.417969 124.351562 64.261719 124.167969 C 64.117188 123.996094 63.890625 123.90625 63.65625 123.929688 L 61.15625 123.929688 C 60.394531 124.023438 59.644531 123.640625 59.261719 122.984375 C 58.816406 122.316406 58.105469 121.882812 57.316406 121.765625 C 56.527344 121.648438 55.722656 121.882812 55.105469 122.410156 C 54.515625 122.867188 53.976562 122.894531 53.515625 122.410156 C 53.054688 121.921875 52.488281 120.925781 51.9375 120.101562 C 51.605469 119.679688 51.238281 119.300781 50.816406 118.984375 C 50.527344 118.75 50.082031 118.710938 49.777344 118.460938 C 49.515625 118.222656 49.359375 117.910156 49.316406 117.582031 C 49.316406 117.410156 49.804688 117.136719 50.082031 117.121094 C 50.898438 117.097656 51.59375 116.546875 51.816406 115.769531 C 51.871094 115.46875 51.871094 115.15625 51.816406 114.851562 C 51.527344 114.851562 51.238281 114.890625 50.960938 114.984375 C 50.015625 115.5625 48.898438 115.796875 47.804688 115.640625 C 46.714844 115.484375 45.699219 114.957031 44.9375 114.15625 C 43.582031 112.9375 42.019531 111.953125 40.335938 111.273438 " fill-opacity="1" fill-rule="nonzero"/></g></svg>